<?xml version="1.0" standalone="no"?>
<!DOCTYPE svg PUBLIC "-//W3C//DTD SVG 20010904//EN"
 "http://www.w3.org/TR/2001/REC-SVG-20010904/DTD/svg10.dtd">
<svg version="1.0" xmlns="http://www.w3.org/2000/svg"
 width="173.000000pt" height="173.000000pt" viewBox="0 0 173.000000 173.000000"
 preserveAspectRatio="xMidYMid meet">
<metadata>
Created by potrace 1.14, written by Peter Selinger 2001-2017
</metadata>
<g transform="translate(0.000000,173.000000) scale(0.100000,-0.100000)"
fill="#000000" stroke="none">
<path d="M906 1703 c-4 -10 -16 -60 -27 -111 -10 -52 -26 -106 -35 -120 -50
-83 -187 -126 -259 -82 -20 12 -41 27 -48 34 -20 21 -61 43 -74 41 -7 -2 -19
-3 -27 -4 -8 0 -27 -12 -42 -25 -31 -26 -31 -21 22 -141 52 -118 67 -158 66
-174 0 -9 5 -35 11 -58 l11 -43 138 0 c85 0 138 -4 139 -10 1 -5 1 -22 2 -37
l1 -28 -142 -3 -142 -3 -6 -25 c-4 -14 -3 -28 0 -32 4 -4 64 -7 134 -7 70 0
132 -4 139 -8 6 -4 10 -15 8 -25 -2 -9 -4 -25 -4 -34 -1 -16 -15 -18 -141 -18
l-140 0 0 -30 c0 -17 6 -31 13 -31 6 -1 66 -3 132 -4 66 -1 127 -3 136 -4 12
-1 16 -11 14 -38 l-1 -38 -90 -2 c-49 -1 -132 -2 -185 -2 l-96 -1 -23 -63
c-33 -90 -75 -170 -140 -268 -76 -113 -90 -141 -90 -184 0 -36 23 -94 44 -107
48 -32 230 61 399 205 40 33 79 68 88 76 9 9 54 50 99 91 66 59 387 413 555
611 17 20 59 68 95 108 72 80 130 187 130 237 0 31 -3 34 -42 44 -24 7 -62 20
-86 31 -33 15 -55 18 -90 13 l-47 -6 -54 61 c-30 34 -58 61 -62 61 -5 0 -19
-11 -33 -25 -31 -31 -53 -31 -97 -2 -22 15 -40 39 -52 72 -34 91 -51 120 -73
123 -13 2 -24 -4 -28 -15z"/>
</g>
</svg>
