<?xml version="1.0" standalone="no"?>
<!DOCTYPE svg PUBLIC "-//W3C//DTD SVG 20010904//EN"
 "http://www.w3.org/TR/2001/REC-SVG-20010904/DTD/svg10.dtd">
<svg version="1.0" xmlns="http://www.w3.org/2000/svg"
 width="173.000000pt" height="173.000000pt" viewBox="0 0 173.000000 173.000000"
 preserveAspectRatio="xMidYMid meet">
<metadata>
Created by potrace 1.14, written by Peter Selinger 2001-2017
</metadata>
<g transform="translate(0.000000,173.000000) scale(0.100000,-0.100000)"
fill="#000000" stroke="none">
<path d="M906 1703 c-4 -10 -16 -60 -27 -111 -10 -52 -26 -106 -35 -120 -50
-83 -187 -126 -259 -82 -20 12 -41 27 -48 34 -20 21 -61 43 -74 41 -7 -2 -19
-3 -27 -4 -8 0 -27 -12 -42 -25 -31 -26 -31 -21 22 -141 53 -121 66 -156 69
-187 2 -18 7 -45 10 -60 7 -27 6 -28 -29 -28 -35 0 -36 -1 -36 -40 0 -39 1
-40 33 -40 32 0 33 -2 33 -35 -1 -29 -5 -35 -23 -35 -20 0 -23 -5 -23 -40 0
-33 3 -40 20 -40 15 0 20 -7 20 -29 0 -16 6 -32 13 -34 6 -3 -7 -6 -30 -6
l-43 -1 0 -40 c0 -22 -4 -40 -9 -40 -4 0 -19 -28 -31 -63 -33 -90 -75 -170
-140 -268 -76 -113 -90 -141 -90 -184 0 -36 23 -94 44 -107 48 -32 230 61 399
205 40 33 79 68 88 76 9 9 51 47 94 86 77 69 161 160 450 490 82 94 176 201
209 238 68 77 126 184 126 233 0 31 -3 34 -42 44 -24 7 -62 20 -86 31 -33 15
-55 18 -90 13 l-47 -6 -54 61 c-30 34 -58 61 -62 61 -5 0 -19 -11 -33 -25 -31
-31 -53 -31 -97 -2 -22 15 -40 39 -52 72 -34 91 -51 120 -73 123 -13 2 -24 -4
-28 -15z"/>
</g>
</svg>
