<?xml version="1.0" standalone="no"?>
<!DOCTYPE svg PUBLIC "-//W3C//DTD SVG 20010904//EN"
 "http://www.w3.org/TR/2001/REC-SVG-20010904/DTD/svg10.dtd">
<svg version="1.0" xmlns="http://www.w3.org/2000/svg"
 width="372.000000pt" height="372.000000pt" viewBox="0 0 372.000000 372.000000"
 preserveAspectRatio="xMidYMid meet">
<metadata>
Created by potrace 1.14, written by Peter Selinger 2001-2017
</metadata>
<g transform="translate(0.000000,372.000000) scale(0.100000,-0.100000)"
fill="#000000" stroke="none">
<path d="M1170 3660 c-86 -16 -133 -64 -129 -134 2 -23 0 -47 -4 -53 -4 -6 -2
-15 4 -19 8 -4 9 -3 5 4 -10 17 -1 15 13 -2 10 -12 8 -14 -13 -12 -17 2 -23
-1 -19 -10 3 -8 -2 -14 -11 -14 -19 0 -115 -93 -171 -165 -39 -50 -196 -211
-248 -253 -16 -13 -39 -28 -53 -34 -36 -17 -29 -28 10 -17 19 5 38 9 43 8 4
-1 10 0 13 1 20 9 57 5 57 -6 0 -11 -3 -11 -16 -1 -12 10 -14 9 -9 -4 5 -12 1
-15 -16 -14 -12 2 -30 -3 -41 -11 -14 -10 -15 -14 -4 -14 8 -1 3 -7 -11 -16
-23 -14 -23 -14 -2 -9 12 4 22 2 22 -3 0 -15 -37 -21 -51 -8 -9 8 -10 8 -6 0
4 -8 -5 -14 -26 -18 -51 -10 -130 -50 -169 -87 -35 -33 -94 -119 -82 -119 4 0
2 -6 -4 -12 -14 -17 -29 -105 -26 -154 5 -111 9 -134 18 -134 6 0 5 -4 -2 -9
-11 -7 -11 -9 2 -14 12 -5 13 -13 6 -37 -5 -17 -6 -28 -2 -26 4 2 18 -3 30
-13 21 -16 22 -17 3 -17 -11 0 -17 5 -14 10 3 5 1 6 -5 2 -14 -9 -5 -33 15
-40 14 -6 14 -4 2 11 -13 16 -12 17 3 4 10 -7 16 -17 13 -21 -8 -13 36 -61 48
-53 7 3 9 3 5 -2 -4 -4 -3 -14 3 -22 22 -25 -2 -13 -25 14 -18 21 -24 23 -31
12 -5 -8 -5 -11 0 -7 12 11 35 -19 29 -39 -4 -12 -3 -14 3 -6 7 9 14 7 28 -10
11 -12 21 -26 21 -32 1 -5 2 -14 3 -18 0 -4 10 -3 21 3 23 12 26 7 7 -12 -10
-11 -9 -16 5 -30 15 -15 18 -15 18 -3 0 8 -5 15 -11 15 -5 0 -7 5 -4 11 10 15
34 -21 27 -41 -4 -12 -2 -12 8 -3 7 6 19 9 27 6 11 -4 10 -8 -4 -20 -17 -14
-17 -14 -1 -9 12 3 18 0 18 -9 0 -13 19 -20 43 -16 4 1 2 -9 -4 -21 -11 -21
-11 -22 4 -9 11 9 17 10 17 2 0 -6 7 -11 15 -11 14 0 20 -12 16 -33 -1 -5 3
-6 8 -2 6 3 8 13 5 23 -5 14 -4 15 5 2 6 -8 11 -23 11 -33 0 -10 5 -15 10 -12
6 4 7 12 3 18 -4 7 1 5 12 -3 10 -8 20 -14 22 -12 12 8 13 -1 2 -15 -7 -10 -9
-15 -4 -10 4 4 16 0 26 -9 10 -9 25 -14 33 -11 9 4 18 1 22 -5 4 -6 3 -8 -4
-4 -6 3 -13 2 -16 -3 -7 -10 20 -9 30 2 4 4 12 7 18 7 6 0 4 -5 -4 -10 -13 -8
-12 -10 3 -10 11 0 15 -4 11 -11 -5 -8 3 -10 24 -7 17 2 31 2 30 -1 0 -3 0
-15 1 -26 1 -18 2 -19 12 -2 13 21 25 22 33 1 5 -13 4 -14 -7 -6 -10 9 -14 8
-14 -2 0 -8 7 -13 16 -11 9 1 20 -3 24 -9 5 -7 7 -2 4 10 -5 22 14 27 30 9 4
-4 2 -5 -4 -1 -9 5 -12 0 -11 -18 1 -13 6 -22 10 -20 5 3 6 10 3 15 -3 5 1 6
9 3 9 -3 13 -11 9 -18 -4 -6 2 -4 12 4 11 9 16 10 11 3 -5 -9 1 -13 18 -13 20
0 26 -5 26 -22 1 -23 1 -23 15 2 12 22 14 23 20 7 4 -9 1 -25 -6 -35 -13 -15
-12 -16 3 -4 9 7 18 9 20 5 3 -4 3 -2 1 6 -3 11 2 10 16 -3 11 -10 18 -23 15
-28 -4 -6 5 -2 20 7 25 17 26 17 20 0 -6 -15 -3 -17 18 -13 21 4 25 2 20 -11
-5 -14 -4 -14 13 -1 11 9 16 10 11 3 -4 -8 -2 -13 4 -13 6 0 9 -4 6 -9 -3 -5
7 -8 24 -7 25 2 27 0 17 -13 -10 -12 -9 -13 2 -7 8 5 17 3 23 -5 8 -11 9 -10
4 3 -3 10 -1 20 5 23 5 4 9 3 8 -2 -1 -4 -1 -17 0 -28 1 -15 3 -17 10 -6 6 9
10 10 12 2 2 -6 18 -12 36 -14 17 -1 29 -5 27 -9 -3 -4 -21 -5 -42 -2 l-37 4
41 -25 c39 -23 61 -49 118 -142 17 -29 31 -41 41 -37 8 4 13 9 11 13 -3 4 4 7
14 7 10 0 16 -5 14 -11 -3 -7 7 -10 26 -9 16 1 28 -2 25 -7 -3 -4 -13 -6 -23
-3 -14 5 -15 4 -2 -5 8 -6 24 -8 35 -5 l20 6 -20 -15 c-16 -12 -17 -18 -8 -28
10 -9 15 -10 27 0 11 9 16 9 22 0 4 -7 3 -9 -3 -6 -6 4 -17 -1 -24 -10 -8 -9
-9 -14 -4 -11 6 3 24 0 40 -7 l30 -13 -34 3 c-18 2 -30 1 -26 -3 4 -4 10 -7
13 -8 15 -2 42 -17 42 -23 0 -4 -12 -8 -27 -9 -37 -3 -39 -9 -16 -35 27 -30
83 -114 83 -124 0 -4 -5 -1 -10 7 -6 9 -10 10 -10 3 0 -19 20 -26 26 -8 6 14
8 13 21 -5 12 -18 17 -19 31 -8 10 7 13 8 9 3 -4 -5 7 -17 25 -27 l33 -18 -30
5 c-27 5 -28 4 -7 -5 15 -6 21 -14 16 -22 -6 -9 -3 -9 9 1 20 16 23 1 5 -18
-11 -10 -9 -11 6 -5 13 5 17 4 12 -4 -5 -8 -2 -10 8 -6 14 5 21 -14 18 -47 -1
-3 6 -6 13 -6 10 0 11 4 6 11 -6 7 -4 19 5 30 8 11 14 15 14 10 0 -6 -5 -15
-12 -22 -9 -9 -9 -12 1 -12 8 0 11 -7 8 -20 -3 -11 -2 -18 3 -15 4 3 15 -7 25
-21 12 -19 20 -23 28 -15 16 16 32 14 18 -3 -9 -11 -6 -13 19 -11 24 2 28 0
19 -11 -12 -15 -3 -38 12 -28 5 3 7 9 4 14 -3 5 -1 11 4 14 5 4 8 -5 7 -18 -3
-20 1 -23 20 -21 17 1 21 -2 16 -14 -5 -14 -3 -14 11 -2 10 8 17 9 17 3 0 -6
8 -18 17 -27 16 -16 18 -16 31 1 13 18 14 17 7 -6 -7 -22 -6 -23 9 -11 14 11
16 11 16 -2 0 -23 22 -27 45 -8 12 9 15 10 8 1 -20 -22 -15 -32 10 -19 20 10
21 10 7 -4 -14 -14 -109 -46 -460 -153 -63 -19 -126 -39 -140 -44 -14 -5 -72
-23 -130 -40 -109 -33 -326 -100 -565 -175 -77 -24 -152 -47 -167 -51 -16 -3
-28 -10 -28 -16 0 -5 4 -7 9 -3 8 4 93 27 224 61 9 2 25 6 35 8 92 24 230 59
242 61 8 2 51 13 95 24 44 12 91 24 105 27 14 3 51 12 83 20 32 8 63 12 69 8
6 -4 8 -3 5 3 -7 11 89 36 104 27 5 -3 9 -1 9 4 0 5 6 9 13 9 6 1 39 8 72 16
33 9 69 17 80 19 11 2 23 8 27 13 5 6 8 4 8 -4 0 -12 3 -12 18 1 22 18 44 17
49 -2 3 -9 1 -11 -4 -5 -13 16 -36 18 -30 2 4 -10 -4 -13 -29 -12 -19 1 -37
-2 -40 -6 -3 -5 1 -9 8 -9 10 0 10 -2 -1 -9 -8 -5 -16 -19 -18 -31 -3 -18 0
-19 16 -10 11 5 31 10 45 10 14 0 27 4 30 9 3 4 -6 7 -20 5 -21 -2 -23 0 -13
12 14 17 23 19 13 2 -5 -7 -2 -9 8 -5 9 3 21 0 28 -6 10 -10 12 -7 7 11 -4 19
-3 21 9 11 7 -6 12 -15 9 -18 -2 -4 2 -8 10 -8 10 0 11 5 5 17 -8 15 -4 17 28
13 20 -2 43 -6 51 -8 10 -4 11 -2 3 8 -8 9 -8 17 0 27 8 12 9 11 4 -4 -5 -13
-2 -17 8 -13 8 3 17 1 20 -6 2 -7 5 -1 5 13 1 19 3 22 11 10 5 -8 12 -11 16
-7 4 4 14 1 22 -6 13 -9 14 -9 8 1 -5 8 -1 12 10 12 9 0 23 8 31 18 8 9 12 12
9 6 -3 -7 1 -17 8 -23 12 -10 14 -7 10 21 -4 30 -3 31 8 13 7 -11 20 -21 28
-23 11 -3 9 3 -5 20 -11 12 -13 17 -4 11 12 -10 18 -10 29 0 9 8 11 9 6 0 -3
-6 -1 -15 5 -19 7 -4 9 -3 6 3 -4 6 0 16 8 23 13 11 14 10 10 -2 -4 -9 0 -15
9 -15 8 0 12 6 9 13 -6 16 14 27 23 13 5 -8 3 -9 -6 -4 -9 5 -11 4 -6 -4 11
-16 28 -2 22 18 -5 13 -3 12 8 -3 10 -11 19 -15 28 -10 7 5 22 9 32 9 11 0 21
7 23 15 4 12 3 12 -5 2 -8 -11 -10 -11 -14 0 -4 10 3 13 27 13 24 0 31 -4 28
-15 -3 -10 0 -9 7 3 6 9 8 23 5 30 -4 6 0 4 8 -5 8 -11 23 -16 37 -13 31 6 37
14 20 26 -13 9 -12 10 2 6 9 -3 19 -3 21 1 2 4 3 2 1 -4 -1 -6 4 -11 12 -11 8
0 14 6 14 13 0 7 5 16 12 20 8 5 9 2 5 -10 -6 -14 -3 -17 9 -12 8 3 18 6 20 6
3 0 3 4 0 8 -2 4 5 9 17 9 17 2 18 0 7 -7 -11 -7 -10 -9 8 -7 12 0 25 9 28 19
3 10 10 16 15 12 5 -3 7 -10 4 -15 -9 -14 5 -11 21 6 15 14 11 20 -11 15 -5
-1 -6 2 -2 6 11 11 38 14 31 3 -3 -5 0 -9 6 -9 6 0 8 -4 5 -10 -3 -6 1 -7 9
-4 17 7 21 20 9 27 -5 2 -3 3 2 2 6 -1 19 1 30 5 11 4 31 3 44 -2 19 -7 22 -5
17 7 -5 13 -2 13 20 -1 17 -12 24 -13 22 -4 -2 7 4 14 12 15 8 2 24 7 34 11
14 5 17 4 12 -4 -11 -18 0 -14 15 5 9 11 10 14 2 9 -9 -5 -11 -2 -6 9 3 9 9
13 12 8 12 -18 39 -21 58 -7 10 9 11 12 3 8 -9 -4 -12 -3 -7 2 5 5 12 9 15 10
4 0 16 4 26 9 14 6 23 3 32 -10 8 -11 14 -13 14 -6 0 7 4 10 9 6 12 -7 33 29
23 40 -4 5 0 4 8 -1 26 -15 54 -11 77 13 17 17 22 19 27 8 3 -9 12 -12 22 -8
13 5 15 3 9 -8 -6 -11 -5 -12 5 -2 11 10 11 15 -1 29 -12 16 -12 17 1 9 26
-16 39 -14 54 10 11 17 12 25 4 27 -8 3 -6 7 4 10 18 8 18 -6 -1 -41 -7 -13
-8 -21 -3 -17 6 3 12 3 15 -1 2 -5 2 -2 0 6 -2 9 2 11 13 7 13 -5 14 -3 6 6
-13 17 -13 30 1 47 7 9 7 12 1 8 -7 -4 -10 9 -8 36 3 59 -4 71 -82 148 -80 81
-208 171 -419 294 -82 48 -152 91 -155 95 -3 4 -15 10 -27 14 -13 4 -23 12
-23 17 0 5 -5 9 -11 9 -11 0 -94 55 -117 76 -6 7 -21 16 -32 19 -11 3 -20 11
-20 16 0 5 -6 9 -13 9 -7 0 -22 8 -33 18 -10 9 -31 23 -46 31 -16 8 -28 18
-28 23 0 4 -4 8 -10 8 -5 0 -89 52 -187 116 -98 64 -248 162 -333 218 -85 55
-159 104 -165 108 -164 121 -237 183 -409 350 -148 143 -176 169 -246 222
-103 80 -237 154 -320 177 -25 7 -47 13 -50 14 -20 6 -103 17 -137 18 -24 1
-45 7 -48 14 -3 10 0 11 14 3 15 -7 20 -6 25 7 5 12 9 14 18 5 7 -7 17 -12 23
-12 5 0 3 5 -5 10 -13 8 -13 10 2 10 9 0 19 -6 21 -12 4 -10 6 -10 6 0 1 6 10
12 22 12 15 0 19 -4 15 -16 -5 -14 -4 -15 8 -5 8 7 12 20 9 29 -3 10 -1 13 4
7 22 -27 83 -40 68 -15 -3 5 0 12 7 16 7 4 10 4 6 -1 -4 -4 -3 -14 3 -22 9
-10 8 -13 0 -13 -7 0 -9 -5 -5 -11 4 -8 9 -7 14 2 10 16 38 21 46 8 3 -5 10
-7 15 -3 5 3 7 9 4 14 -3 4 2 13 9 19 10 9 16 9 21 1 4 -6 1 -9 -7 -8 -14 3
-13 -30 2 -46 5 -5 7 0 3 12 -4 15 -1 20 12 18 9 -1 20 -8 24 -14 8 -13 36
-12 61 2 12 7 13 6 3 -5 -14 -14 -17 -30 -5 -28 25 4 62 -2 58 -10 -8 -12 20
-22 41 -14 11 4 14 3 9 -5 -4 -7 -3 -12 3 -12 5 0 12 6 14 13 5 12 11 -19 7
-38 -1 -5 2 -6 7 -2 4 5 9 13 9 18 1 5 2 14 3 19 0 6 6 10 12 10 8 0 8 -4 0
-14 -8 -10 -8 -16 2 -25 8 -6 18 -7 22 -3 5 4 5 -1 2 -11 -6 -15 -4 -16 13 -7
13 7 21 7 26 -2 4 -7 3 -8 -4 -4 -7 4 -12 2 -12 -3 0 -6 6 -11 14 -11 18 0 38
25 28 35 -4 5 -1 5 6 0 10 -5 11 -10 3 -18 -15 -15 -14 -30 2 -21 9 6 9 5 0
-8 -16 -18 -5 -32 14 -17 17 14 17 -2 1 -20 -11 -11 -9 -11 9 0 12 7 19 18 16
24 -3 5 0 4 7 -2 16 -15 23 -46 9 -37 -5 3 -6 10 -3 16 5 7 2 8 -5 3 -10 -6
-10 -11 2 -23 14 -13 17 -13 31 0 8 9 13 18 11 22 -3 3 -2 4 2 1 10 -8 13 -36
3 -30 -5 3 -8 -4 -7 -15 1 -12 5 -16 10 -11 5 5 16 7 25 4 9 -4 13 -2 9 4 -3
5 0 10 8 10 11 0 12 -4 4 -13 -7 -9 -5 -15 7 -22 11 -6 13 -11 5 -16 -6 -4
-11 -3 -11 3 0 6 -9 15 -20 21 -14 7 -20 7 -20 0 0 -5 7 -10 16 -10 8 0 13 -3
11 -7 -2 -5 5 -17 16 -27 17 -16 19 -17 14 -3 -3 9 -2 17 3 17 9 0 14 -14 11
-32 0 -5 2 -7 7 -7 26 4 42 -3 42 -21 0 -11 6 -20 14 -20 7 0 20 -8 27 -17 12
-16 12 -17 -2 -6 -13 10 -16 10 -16 -1 0 -7 10 -13 21 -12 12 1 21 -4 21 -11
0 -6 10 -21 23 -33 12 -11 22 -16 22 -11 0 6 -8 15 -17 21 -17 11 -17 11 0 6
10 -3 21 -6 23 -6 2 0 4 -12 4 -27 l0 -28 21 25 20 25 -16 -34 c-9 -18 -12
-30 -7 -27 5 3 17 -5 26 -19 9 -14 22 -24 28 -22 7 1 12 -3 13 -10 0 -6 10
-21 22 -32 20 -19 23 -19 31 -5 6 11 11 13 16 5 4 -6 2 -11 -3 -11 -6 0 -11
-5 -11 -11 0 -6 6 -9 14 -6 10 4 13 0 11 -14 -2 -11 0 -17 5 -14 4 3 11 -1 14
-7 3 -10 9 -8 19 5 14 16 15 16 16 -8 3 -45 4 -54 10 -52 13 3 51 -15 51 -24
0 -6 -5 -7 -12 -3 -7 4 -8 3 -4 -5 4 -6 11 -9 16 -6 5 3 12 0 16 -7 5 -8 9 -6
14 7 6 18 7 17 12 -3 4 -12 1 -25 -4 -29 -7 -4 -8 -1 -3 7 6 9 4 11 -4 6 -7
-5 -9 -11 -6 -15 6 -6 10 -7 36 -10 5 0 7 -6 3 -13 -4 -6 -3 -8 3 -5 12 8 47
-20 56 -45 4 -11 14 -16 27 -13 30 6 41 15 34 27 -5 7 -2 8 6 3 10 -6 9 -12
-6 -24 -35 -29 -22 -48 34 -53 6 -1 11 -8 10 -17 -2 -11 4 -16 18 -15 16 0 20
-4 16 -15 -4 -10 -1 -13 11 -8 9 3 19 1 23 -4 3 -6 14 -9 23 -6 10 2 18 -1 18
-8 0 -14 -22 -9 -44 8 -8 6 -13 6 -13 0 0 -5 12 -15 26 -21 14 -7 22 -17 19
-22 -3 -6 -1 -11 4 -11 16 -2 23 -4 49 -13 18 -6 22 -13 18 -28 -3 -16 -2 -18
6 -10 9 9 16 3 30 -19 15 -25 21 -29 33 -19 12 10 15 9 15 -7 0 -11 11 -30 25
-43 22 -21 30 -20 26 3 0 4 5 6 11 5 15 -3 37 -29 38 -42 0 -6 -6 -2 -13 9
-11 14 -16 15 -22 5 -5 -8 -4 -11 2 -7 6 4 13 1 16 -7 4 -9 14 -12 28 -9 19 5
20 3 14 -18 -6 -20 -5 -22 6 -11 16 14 33 16 24 2 -3 -5 -1 -10 4 -10 6 0 11
5 11 12 0 6 3 8 6 5 4 -4 1 -14 -7 -23 -13 -16 -12 -16 11 -4 21 10 23 10 13
-1 -15 -15 -17 -33 -4 -25 5 3 14 -1 21 -9 7 -8 16 -13 20 -10 4 2 18 -4 30
-15 15 -13 31 -18 44 -14 21 6 21 6 1 -9 -11 -9 -17 -19 -12 -23 4 -4 7 -2 7
4 0 7 9 12 20 12 11 0 20 -7 20 -15 0 -9 8 -19 18 -22 9 -4 24 -16 33 -26 15
-20 16 -20 36 2 16 17 23 20 29 9 4 -7 4 -10 -1 -6 -4 4 -14 0 -21 -10 -16
-21 -17 -32 -3 -32 5 0 8 4 5 9 -3 5 1 12 10 15 8 3 12 2 9 -4 -11 -18 5 -32
21 -19 8 6 17 9 21 5 3 -3 2 -6 -4 -6 -5 0 -10 -6 -10 -14 0 -8 6 -12 15 -8
10 3 13 1 8 -6 -9 -14 7 -23 24 -12 16 10 40 2 40 -12 0 -6 -6 -5 -15 2 -10 9
-15 9 -15 1 0 -10 13 -15 33 -12 4 0 7 -4 7 -10 0 -7 13 -9 38 -5 30 4 32 4
14 -4 -26 -11 -22 -30 6 -26 9 2 22 -5 29 -14 12 -17 73 -26 73 -10 0 16 -41
38 -61 33 -10 -3 -19 -1 -19 4 0 6 11 9 26 7 20 -2 23 0 14 11 -6 8 -19 11
-27 8 -11 -4 -14 -2 -9 5 5 8 1 10 -10 5 -12 -4 -15 -3 -10 5 4 7 1 12 -9 12
-10 0 -13 -5 -9 -12 4 -7 3 -8 -5 -4 -6 4 -8 12 -5 18 4 6 -2 8 -17 4 -13 -3
-18 -3 -12 0 10 4 10 9 -1 20 -16 15 -30 19 -22 6 3 -5 -1 -9 -9 -9 -12 0 -12
3 -3 15 9 11 9 13 -3 12 -32 -5 -41 -1 -27 14 7 8 15 11 18 7 8 -10 60 -38
142 -77 43 -21 75 -41 71 -47 -3 -6 -1 -7 5 -3 18 11 85 -21 76 -36 -5 -8 -1
-7 11 2 16 13 18 13 13 0 -7 -22 -38 -25 -39 -3 0 12 -4 9 -11 -9 -5 -16 -14
-28 -19 -28 -5 0 -9 -4 -9 -9 0 -4 14 -7 31 -5 22 3 28 0 23 -9 -6 -9 -3 -8 8
1 13 10 18 10 24 1 5 -8 3 -9 -6 -4 -8 5 -11 4 -6 -3 4 -6 14 -8 23 -5 12 5
14 3 8 -8 -5 -8 2 -5 15 6 l23 20 -12 -22 c-14 -27 -9 -29 15 -5 16 16 17 16
11 0 -5 -14 -1 -17 21 -15 23 2 27 -2 26 -26 -1 -17 4 -27 12 -27 8 0 14 -5
14 -11 0 -5 4 -7 10 -4 16 10 12 -2 -7 -21 -17 -17 -17 -17 -1 -11 10 3 20 2
23 -3 4 -6 0 -10 -7 -10 -7 -1 -3 -6 8 -13 12 -7 20 -20 18 -30 -1 -9 2 -15 7
-11 5 3 13 -5 18 -18 10 -22 10 -22 8 4 -1 15 -5 24 -11 21 -5 -4 -6 -1 -1 7
5 8 4 11 -3 6 -12 -7 -10 20 3 31 4 4 5 3 2 -3 -4 -7 0 -17 8 -24 8 -7 15 -26
15 -42 0 -16 4 -27 10 -23 5 3 7 11 5 18 -2 7 -6 26 -9 42 -30 182 -99 279
-356 505 -90 78 -257 244 -323 320 -160 184 -346 527 -442 817 -35 106 -39
111 -64 110 -14 -1 -29 -6 -33 -12 -4 -5 -6 5 -4 22 1 17 10 41 19 54 l18 24
-12 -25 c-9 -19 -9 -22 0 -14 14 13 24 57 11 49 -14 -8 0 26 19 49 11 14 12
17 2 11 -11 -6 -13 -3 -8 16 4 13 7 30 7 37 0 7 5 10 11 6 8 -5 8 -1 0 14 -14
27 -14 35 1 26 7 -4 8 -3 4 5 -4 6 -9 33 -11 59 -9 107 -38 167 -116 244 -68
66 -89 71 -39 9 25 -31 30 -44 22 -54 -9 -10 -8 -17 0 -25 9 -9 9 -12 -1 -12
-10 0 -11 -3 -2 -13 6 -8 8 -17 4 -21 -4 -4 1 -4 11 0 14 5 15 9 5 15 -8 4
-10 11 -6 15 4 4 2 13 -4 20 -6 8 -6 14 0 18 9 6 19 -14 22 -39 0 -5 7 -17 15
-26 16 -18 7 -34 -12 -18 -8 7 -14 6 -20 -2 -4 -8 -3 -9 4 -5 7 4 12 1 12 -9
0 -10 6 -15 13 -12 7 3 13 -5 13 -20 2 -23 1 -23 -13 -6 -13 17 -13 16 -3 -4
6 -13 16 -23 23 -23 8 0 7 -3 -2 -9 -12 -8 -12 -12 -2 -25 11 -13 11 -16 0
-16 -10 0 -10 -3 -3 -8 6 -4 9 -16 7 -27 -3 -11 -4 -28 -4 -39 0 -25 -35 -117
-65 -169 -40 -69 -48 -80 -76 -118 -15 -20 -25 -38 -22 -41 2 -3 19 -4 37 -2
18 1 26 0 20 -3 -7 -2 -13 -9 -13 -14 0 -6 5 -7 12 -3 7 4 8 3 4 -4 -4 -7 -14
-12 -22 -12 -9 0 -12 5 -8 12 4 7 3 8 -5 4 -6 -4 -9 -11 -6 -16 3 -5 -3 -13
-12 -19 -10 -6 -13 -11 -7 -11 5 0 15 5 22 12 9 9 12 8 12 -4 0 -9 7 -19 16
-22 13 -5 14 -4 6 7 -9 10 -8 14 3 14 8 0 15 -3 15 -7 0 -5 30 -6 73 -1 4 1 7
6 7 12 0 8 -4 8 -13 1 -10 -8 -13 -6 -14 8 -1 11 2 22 8 25 5 3 6 0 3 -8 -6
-15 31 -18 54 -3 16 10 -2 36 -25 36 -13 0 -13 -3 -2 -17 13 -17 12 -17 -6 -2
-11 9 -27 14 -35 12 -13 -4 -13 -3 0 6 8 5 18 7 22 5 4 -3 8 0 8 7 0 6 8 9 20
6 11 -3 20 -1 20 5 0 5 5 6 10 3 6 -3 10 -11 10 -16 0 -6 -4 -7 -10 -4 -11 7
-14 -8 -3 -19 4 -3 8 -14 9 -24 2 -9 7 -18 13 -20 5 -2 7 -10 4 -19 -4 -11 -2
-14 5 -9 9 5 9 1 2 -18 -10 -28 1 -43 23 -30 8 5 8 2 -2 -9 -12 -15 -11 -17 3
-17 9 0 16 -5 16 -11 0 -5 -4 -7 -10 -4 -5 3 -10 -1 -10 -9 0 -9 8 -16 18 -16
13 0 14 -2 4 -9 -11 -7 -11 -9 2 -14 9 -4 16 -12 16 -19 0 -9 -3 -8 -10 2 -5
8 -10 10 -10 4 0 -13 25 -36 31 -29 10 10 7 -40 -3 -59 -10 -19 -10 -20 6 -7
14 12 16 12 10 -4 -6 -14 -4 -16 7 -10 11 7 11 5 -1 -10 -8 -10 -10 -16 -3
-12 7 4 14 -1 18 -13 3 -11 13 -27 21 -35 9 -8 11 -15 5 -15 -5 0 -17 10 -25
22 -9 12 -16 17 -16 11 0 -7 5 -15 10 -18 6 -4 7 -11 4 -17 -4 -6 -2 -8 4 -4
6 3 13 2 17 -4 3 -5 1 -10 -6 -10 -7 0 -9 -3 -6 -6 4 -4 14 -1 22 6 14 11 14
10 6 -13 -8 -21 -7 -25 4 -20 11 4 15 -3 15 -30 0 -22 6 -37 15 -41 8 -3 15
-12 15 -19 0 -8 8 -21 17 -28 15 -12 16 -12 8 1 -13 21 -15 41 -4 34 5 -3 7
-9 4 -14 -3 -5 0 -12 6 -16 9 -5 7 -11 -6 -21 -11 -7 -13 -13 -7 -13 7 0 12
-6 12 -14 0 -7 8 -20 17 -27 10 -8 14 -9 10 -2 -4 6 -3 15 3 18 6 4 10 3 9 -2
-4 -24 3 -41 24 -52 12 -6 14 -9 5 -7 -10 3 -20 0 -24 -6 -4 -7 -3 -8 4 -4 7
4 12 2 12 -5 0 -7 3 -10 6 -6 9 8 30 -14 38 -41 4 -12 12 -22 17 -22 6 0 8 -4
5 -8 -3 -5 6 -15 20 -23 14 -7 28 -25 31 -41 3 -16 10 -25 16 -21 6 4 8 0 4
-10 -4 -12 -2 -14 10 -10 11 4 14 3 9 -6 -10 -16 12 -41 36 -41 16 0 17 -3 8
-20 -8 -16 -8 -20 2 -18 7 2 12 -3 10 -10 -1 -8 2 -11 7 -8 5 4 15 -2 21 -11
11 -17 11 -17 6 0 -3 11 -2 15 4 12 6 -3 10 -15 10 -26 0 -10 4 -19 9 -19 5 0
13 -9 16 -20 3 -11 11 -20 16 -20 6 0 8 4 5 9 -3 4 1 16 8 26 13 18 15 17 44
-12 17 -17 34 -28 38 -24 4 3 4 1 0 -6 -3 -6 7 -21 24 -33 16 -12 30 -27 29
-33 0 -8 -2 -8 -6 1 -2 6 -10 9 -15 6 -6 -4 -8 -2 -5 3 7 11 -20 28 -36 24 -5
-1 -6 3 -3 8 4 5 -1 14 -10 19 -9 5 -15 12 -15 15 3 19 0 21 -10 7 -9 -13 -10
-13 -6 2 3 9 0 19 -8 22 -8 3 -16 0 -18 -7 -6 -20 5 -48 18 -43 6 2 18 0 26
-6 11 -8 11 -9 -3 -4 -10 3 -20 1 -23 -5 -4 -5 -3 -8 2 -7 4 1 18 -3 29 -10
12 -6 25 -8 29 -4 5 4 5 1 1 -6 -4 -7 -12 -10 -17 -7 -5 4 -9 4 -9 1 0 -3 10
-10 21 -17 17 -9 20 -8 14 2 -5 8 -4 10 3 5 7 -4 12 -14 12 -22 0 -9 -5 -12
-12 -8 -7 5 -8 3 -3 -6 6 -10 11 -9 23 6 12 16 14 16 9 2 -6 -17 7 -35 16 -21
2 5 2 2 1 -4 -3 -12 16 -18 39 -14 5 1 6 -3 2 -9 -3 -5 -1 -10 5 -10 6 0 9 -4
6 -9 -8 -12 20 -22 39 -15 8 4 12 11 8 17 -3 6 -1 7 5 3 16 -10 15 -14 -8 -26
-15 -8 -30 -5 -65 12 -25 12 -45 26 -45 31 0 4 -4 5 -10 2 -5 -3 -10 -2 -10 3
0 5 -8 13 -17 16 -25 9 -60 30 -81 49 -10 10 -21 17 -25 17 -17 0 -544 395
-587 440 -3 3 -41 34 -85 70 -141 115 -258 223 -410 380 -232 239 -318 320
-428 402 -45 33 -89 63 -97 66 -8 3 -17 9 -20 12 -10 13 -155 78 -212 94 -67
19 -151 30 -227 30 -29 0 -49 2 -42 4 6 2 9 7 6 11 -2 5 7 7 20 5 14 -1 23 2
19 7 -3 5 -11 6 -17 2 -7 -4 -6 0 2 10 7 9 17 15 21 12 5 -3 12 0 16 6 4 8 3
9 -4 5 -7 -4 -12 -2 -12 5 0 6 8 9 19 6 15 -3 18 -1 14 11 -4 9 -2 13 4 9 7
-5 9 1 6 15 -4 19 -3 20 6 8 9 -12 11 -11 11 9 0 18 3 21 13 12 10 -8 14 -7
14 4 0 8 -4 12 -9 9 -4 -3 -8 0 -8 5 0 6 9 11 20 11 11 0 23 7 26 15 4 8 10
12 15 9 5 -3 9 0 9 5 0 6 -4 11 -10 11 -5 0 -10 5 -10 10 0 7 6 7 20 0 17 -9
20 -8 20 12 1 23 1 23 16 3 16 -20 16 -20 10 0 -5 18 -2 20 32 19 43 -1 63 11
55 34 -7 18 -5 17 17 -12 12 -16 12 -18 1 -11 -10 5 -12 4 -7 -3 4 -7 11 -12
16 -12 14 0 20 31 9 48 -9 15 -10 14 -4 -2 6 -19 5 -19 -15 -1 -11 10 -20 14
-20 9 0 -5 -4 -2 -10 6 -5 8 -12 11 -16 7 -4 -4 -2 -13 4 -19 7 -7 12 -19 11
-28 0 -13 -1 -13 -6 0 -4 8 -12 21 -20 28 -11 11 -13 11 -13 0 0 -10 -3 -9
-10 2 -8 13 -10 13 -10 -2 0 -9 -5 -20 -12 -24 -8 -5 -9 -2 -5 10 5 12 3 16
-5 13 -7 -2 -12 -11 -12 -20 1 -10 -4 -13 -14 -10 -11 5 -13 3 -7 -7 5 -8 4
-11 -2 -7 -6 4 -16 0 -23 -8 -7 -8 -16 -15 -21 -15 -13 0 87 96 103 99 79 11
145 0 163 -29 15 -24 25 -7 10 18 -23 38 -75 70 -124 75 -22 2 -44 7 -48 11
-5 4 -3 7 2 5 6 -1 21 2 35 8 14 6 29 11 34 11 5 0 13 6 18 14 8 10 9 9 5 -4
-3 -9 0 -19 8 -22 9 -3 12 0 9 8 -3 8 0 17 7 22 7 4 10 3 6 -2 -3 -6 3 -15 13
-22 14 -9 21 -9 26 0 4 6 3 8 -4 4 -6 -3 -13 -2 -16 2 -3 5 7 8 21 7 15 0 28
-7 31 -15 3 -13 2 -13 -7 0 -8 12 -10 11 -8 -7 1 -21 2 -21 19 -6 17 15 18 15
18 0 0 -11 5 -14 17 -10 11 4 14 3 9 -5 -5 -8 -1 -10 10 -5 13 5 15 3 9 -8 -8
-12 -6 -12 8 0 10 8 20 11 24 7 3 -3 0 -6 -8 -6 -11 0 -11 -2 1 -10 12 -8 12
-10 1 -10 -8 0 -11 -3 -8 -6 4 -4 14 -1 24 7 11 9 14 10 9 2 -7 -12 5 -18 27
-14 5 1 6 -3 2 -9 -3 -6 -11 -8 -16 -5 -5 4 -9 1 -9 -5 0 -6 11 -8 26 -6 15 3
24 2 21 -1 -4 -3 -2 -14 3 -24 7 -12 6 -19 -3 -23 -6 -2 -1 -4 13 -3 18 2 25
-3 24 -16 -2 -14 1 -15 12 -7 10 9 12 6 8 -17 -5 -27 -4 -27 10 -8 8 11 12 24
9 29 -4 5 -1 6 5 3 12 -8 11 -25 -2 -46 -6 -9 -5 -12 1 -8 11 7 28 -20 24 -36
-1 -4 8 -3 19 3 11 6 17 16 14 22 -4 7 -2 8 5 4 8 -6 9 -12 2 -20 -6 -7 -7
-16 -3 -20 4 -4 2 -6 -4 -4 -7 1 -12 -1 -12 -7 -1 -5 6 -9 13 -7 10 2 13 -3 8
-15 -6 -16 -5 -17 12 -3 17 14 18 14 5 -10 -12 -22 -12 -24 2 -12 13 10 18 10
24 1 4 -8 3 -9 -4 -5 -7 4 -12 3 -12 -2 0 -5 10 -14 23 -21 12 -6 14 -9 5 -7
-12 4 -15 1 -11 -10 3 -8 11 -13 18 -11 6 3 12 -1 12 -8 0 -7 -8 -12 -19 -10
-10 2 -16 0 -13 -6 4 -5 9 -8 13 -5 4 2 16 0 27 -5 l20 -8 -20 -1 c-16 -1 -14
-4 10 -15 22 -11 25 -14 11 -15 -20 0 -20 0 0 -16 10 -8 13 -13 7 -9 -9 4 -11
1 -7 -9 3 -9 10 -13 15 -10 6 3 8 -6 5 -21 -3 -17 0 -28 10 -32 8 -3 13 -13
12 -22 -2 -10 5 -17 20 -19 12 -2 20 -8 16 -13 -3 -5 -10 -6 -16 -3 -7 4 -8 2
-4 -5 4 -6 12 -8 18 -5 7 5 9 1 5 -9 -7 -18 24 -42 38 -29 5 4 5 2 2 -4 -4 -6
0 -20 7 -30 10 -13 11 -24 4 -38 -8 -14 -7 -17 3 -11 9 6 11 2 7 -13 -4 -13 1
-27 13 -38 10 -9 16 -21 13 -26 -3 -5 2 -8 11 -6 10 2 20 -3 23 -11 3 -9 0
-11 -8 -6 -9 5 -11 4 -6 -4 11 -17 28 -2 21 20 -5 14 -3 17 9 13 9 -4 16 -1
16 6 0 7 6 10 14 7 8 -3 17 0 20 8 3 10 0 12 -12 9 -14 -5 -15 -4 -2 4 8 6 19
7 25 2 6 -5 18 -3 28 5 14 10 15 14 5 19 -7 3 -3 4 8 2 18 -3 21 1 19 19 -1
16 2 22 11 18 7 -3 23 2 36 11 26 19 17 21 -15 4 -19 -10 -20 -9 -10 4 7 8 10
18 6 22 -4 4 0 4 9 1 11 -4 18 0 23 14 3 12 11 21 18 21 8 0 8 -3 -1 -12 -15
-15 -15 -28 -1 -28 5 0 8 4 5 9 -3 5 1 14 9 21 16 13 21 35 7 26 -5 -3 -9 1
-9 9 0 13 3 13 17 0 16 -14 17 -13 16 15 0 16 4 29 9 27 6 -1 9 -6 7 -12 -2
-5 8 3 22 20 13 16 22 34 19 38 -3 5 3 17 13 28 10 11 14 20 9 19 -6 -2 -16
-2 -24 -1 -11 1 -10 4 4 14 10 8 15 19 11 25 -4 7 -1 12 6 12 10 0 10 2 -1 9
-8 5 -9 11 -3 15 6 3 8 16 4 28 -4 16 -2 19 8 13 9 -6 11 -4 4 6 -4 8 -9 30
-9 49 -2 41 -11 88 -25 125 -6 15 -8 31 -4 36 3 5 2 8 -3 7 -4 -2 -27 18 -51
44 -66 72 -114 88 -219 77 -18 -2 -33 -7 -33 -11 0 -4 -10 -10 -22 -14 -28 -8
-90 -51 -138 -93 -43 -37 -50 -38 -78 -6 -12 14 -20 25 -17 25 11 0 -155 159
-205 197 -92 70 -191 105 -260 93z m100 -114 c0 -3 -4 -8 -10 -11 -5 -3 -10
-1 -10 4 0 6 5 11 10 11 6 0 10 -2 10 -4z m209 -182 c6 4 11 2 11 -4 0 -17
-33 -8 -37 10 -4 12 -3 13 5 1 5 -7 15 -10 21 -7z m-369 -28 c0 -3 -4 -8 -10
-11 -5 -3 -10 -1 -10 4 0 6 5 11 10 11 6 0 10 -2 10 -4z m-133 -81 c0 -8 -4
-12 -9 -9 -5 3 -6 10 -3 15 9 13 12 11 12 -6z m-50 -20 c0 -8 -4 -12 -9 -9 -5
3 -6 10 -3 15 9 13 12 11 12 -6z m-77 -109 c0 -3 -4 -8 -10 -11 -5 -3 -10 -1
-10 4 0 6 5 11 10 11 6 0 10 -2 10 -4z m-30 -19 c0 -2 -12 -14 -27 -28 l-28
-24 24 28 c23 25 31 32 31 24z m1376 -126 c-12 -13 -13 -20 -6 -23 9 -3 8 -8
-3 -16 -12 -11 -15 -8 -13 17 0 16 4 27 8 25 3 -2 9 0 13 6 3 5 9 10 12 10 3
0 -2 -9 -11 -19z m-1446 -21 c0 -5 -5 -10 -11 -10 -5 0 -7 5 -4 10 3 6 8 10
11 10 2 0 4 -4 4 -10z m56 -26 c1 -9 0 -13 -4 -10 -3 4 -7 14 -8 22 -1 9 0 13
4 10 3 -4 7 -14 8 -22z m939 6 c8 -13 -5 -13 -25 0 -13 8 -13 10 2 10 9 0 20
-4 23 -10z m-1115 -21 c0 -11 -29 -19 -34 -10 -3 5 -3 10 -1 13 8 7 35 5 35
-3z m227 -11 c-3 -8 -6 -5 -6 6 -1 11 2 17 5 13 3 -3 4 -12 1 -19z m53 16 c0
-8 -19 -13 -24 -6 -3 5 1 9 9 9 8 0 15 -2 15 -3z m850 -14 c-8 -5 -19 -10 -25
-10 -5 0 -3 5 5 10 8 5 20 10 25 10 6 0 3 -5 -5 -10z m-743 -16 c-3 -3 -12 -4
-19 -1 -8 3 -5 6 6 6 11 1 17 -2 13 -5z m84 -27 c-10 -9 -11 -8 -5 6 3 10 9
15 12 12 3 -3 0 -11 -7 -18z m24 -27 c3 -5 1 -10 -4 -10 -6 0 -11 5 -11 10 0
6 2 10 4 10 3 0 8 -4 11 -10z m121 -36 c1 -9 0 -13 -4 -10 -3 4 -7 14 -8 22
-1 9 0 13 4 10 3 -4 7 -14 8 -22z m765 -41 c13 -16 12 -17 -3 -4 -17 13 -22
21 -14 21 2 0 10 -8 17 -17z m-163 -45 c-2 -7 3 -12 10 -10 8 1 11 -2 6 -9 -5
-9 -2 -10 12 -5 15 6 16 5 7 -5 -10 -10 -17 -9 -33 6 -11 10 -17 22 -14 26 8
13 14 11 12 -3z m382 -44 c0 -8 -19 -13 -24 -6 -3 5 1 9 9 9 8 0 15 -2 15 -3z
m-704 -76 c3 -4 -1 -5 -10 -4 -8 1 -18 5 -22 8 -3 4 1 5 10 4 8 -1 18 -5 22
-8z m39 -48 c-3 -5 -12 -10 -18 -10 -7 0 -6 4 3 10 19 12 23 12 15 0z m81 -62
l19 -23 -25 20 c-14 11 -27 21 -29 22 -2 2 0 3 6 3 5 0 18 -10 29 -22z m82
-93 c-3 -3 -9 2 -12 12 -6 14 -5 15 5 6 7 -7 10 -15 7 -18z m-23 -4 c4 -12 12
-18 21 -14 7 3 14 3 14 0 0 -3 -6 -7 -14 -10 -9 -3 -21 4 -30 19 -9 13 -12 24
-7 24 5 0 12 -9 16 -19z m75 -73 c0 -5 -9 -4 -20 2 -11 6 -20 12 -20 14 0 2 9
2 20 -1 11 -3 20 -9 20 -15z m64 -44 c3 -8 2 -12 -4 -9 -6 3 -10 10 -10 16 0
14 7 11 14 -7z m66 -28 c0 -3 -4 -8 -10 -11 -5 -3 -10 -1 -10 4 0 6 5 11 10
11 6 0 10 -2 10 -4z m17 -23 c-4 -3 -1 -13 6 -22 11 -14 10 -14 -5 -2 -16 12
-16 31 -1 31 4 0 3 -3 0 -7z m609 -11 c-3 -3 -1 -11 6 -19 8 -11 7 -12 -5 -7
-9 3 -15 14 -14 24 1 10 5 16 10 13 4 -3 6 -8 3 -11z m-2151 -112 c-3 -5 -12
-10 -18 -10 -7 0 -6 4 3 10 19 12 23 12 15 0z m2232 -5 c5 -4 3 -5 -4 -1 -6 3
-17 -2 -23 -11 -10 -16 -11 -16 -6 -1 3 9 0 19 -7 22 -7 2 -2 4 10 2 12 -1 26
-6 30 -11z m-533 -13 c3 -5 -1 -9 -9 -9 -8 0 -12 4 -9 9 3 4 7 8 9 8 2 0 6 -4
9 -8z m-1619 -62 c3 -5 1 -10 -4 -10 -6 0 -11 5 -11 10 0 6 2 10 4 10 3 0 8
-4 11 -10z m1679 -12 c-2 -3 -13 -6 -24 -5 -24 2 -18 13 9 13 11 0 18 -4 15
-8z m46 -28 c0 -5 -2 -10 -4 -10 -3 0 -8 5 -11 10 -3 6 -1 10 4 10 6 0 11 -4
11 -10z m521 -17 c8 -9 9 -14 2 -10 -6 4 -13 1 -16 -5 -3 -7 -4 -3 -4 10 1 26
1 26 18 5z m-2181 -8 c-7 -8 -17 -15 -23 -15 -6 0 -2 7 9 15 25 19 30 19 14 0z
m2203 -29 c4 -10 1 -13 -8 -9 -8 3 -12 9 -9 14 7 12 11 11 17 -5z m-2106 -38
c2 -17 0 -19 -7 -8 -5 8 -6 18 -4 22 8 12 10 10 11 -14z m2183 -69 c-6 -10 -5
-20 3 -28 9 -10 8 -11 -5 -6 -20 8 -22 14 -8 35 11 17 -7 43 -24 33 -6 -3 -8
-3 -4 2 4 4 1 14 -7 22 -8 8 -15 19 -15 24 0 5 15 -8 34 -28 25 -28 32 -42 26
-54z m-502 56 c-3 -3 -9 2 -12 12 -6 14 -5 15 5 6 7 -7 10 -15 7 -18z m56 -13
c3 -5 -1 -9 -9 -9 -8 0 -12 4 -9 9 3 4 7 8 9 8 2 0 6 -4 9 -8z m-1670 -48 c3
-8 2 -12 -4 -9 -6 3 -10 10 -10 16 0 14 7 11 14 -7z m1683 10 c-3 -4 -2 -16 4
-28 10 -20 9 -20 -5 -2 -14 17 -13 36 1 36 4 0 3 -3 0 -6z m469 -29 c4 -8 11
-12 17 -8 6 3 7 1 3 -6 -4 -6 0 -14 8 -17 9 -3 16 -11 16 -16 0 -5 -13 1 -29
14 -15 13 -27 26 -25 30 2 3 -2 9 -8 11 -10 4 -10 6 0 6 7 1 15 -6 18 -14z
m-2036 -9 c0 -3 -4 -8 -10 -11 -5 -3 -10 -1 -10 4 0 6 5 11 10 11 6 0 10 -2
10 -4z m1623 -23 c-4 -10 -2 -14 4 -10 6 4 13 -3 16 -15 l6 -21 -21 20 c-11
12 -17 26 -14 32 11 17 16 13 9 -6z m35 -8 c-3 -3 -9 2 -12 12 -6 14 -5 15 5
6 7 -7 10 -15 7 -18z m397 -15 c3 -5 2 -10 -4 -10 -5 0 -13 5 -16 10 -3 6 -2
10 4 10 5 0 13 -4 16 -10z m36 -13 c-10 -9 -11 -8 -5 6 3 10 9 15 12 12 3 -3
0 -11 -7 -18z m-336 -7 c3 -5 1 -10 -4 -10 -6 0 -11 5 -11 10 0 6 2 10 4 10 3
0 8 -4 11 -10z m380 -19 c3 -5 0 -13 -6 -17 -7 -4 -9 -3 -5 4 3 6 -3 12 -16
15 -23 4 -23 4 -1 6 12 0 24 -3 28 -8z m-16 -45 c-3 -3 -11 5 -18 17 -13 21
-12 21 5 5 10 -10 16 -20 13 -22z m-284 -4 c-3 -3 -11 0 -18 7 -9 10 -8 11 6
5 10 -3 15 -9 12 -12z m-1535 -32 c0 -5 -2 -10 -4 -10 -3 0 -8 5 -11 10 -3 6
-1 10 4 10 6 0 11 -4 11 -10z m1520 -1 c0 -8 6 -7 18 2 15 13 16 12 3 -4 -10
-13 -17 -15 -27 -6 -17 14 -18 19 -4 19 6 0 10 -5 10 -11z m104 -17 c3 -5 -1
-9 -9 -9 -8 0 -12 4 -9 9 3 4 7 8 9 8 2 0 6 -4 9 -8z m-40 -18 c3 -8 2 -12 -4
-9 -6 3 -10 10 -10 16 0 14 7 11 14 -7z m467 -116 c-11 -11 -13 -11 -6 0 8 15
-52 75 -66 66 -5 -3 -6 1 -3 9 4 11 16 5 47 -24 35 -32 40 -40 28 -51z m-317
66 c3 -8 2 -12 -4 -9 -6 3 -10 10 -10 16 0 14 7 11 14 -7z m-21 -32 c4 9 6 9
6 1 2 -23 -18 -23 -29 -1 -10 21 -10 22 3 5 11 -14 16 -15 20 -5z m87 -7 c5 3
12 0 16 -6 4 -8 3 -9 -4 -5 -7 4 -12 2 -12 -4 0 -7 -5 -6 -14 2 -8 7 -11 17
-8 23 3 5 7 4 10 -3 2 -7 8 -10 12 -7z m24 -75 c-6 -6 -10 -3 -10 10 0 13 4
16 10 10 7 -7 7 -13 0 -20z m291 20 c3 -5 1 -10 -4 -10 -6 0 -11 5 -11 10 0 6
2 10 4 10 3 0 8 -4 11 -10z m-115 -112 c0 -4 -4 -8 -9 -8 -6 0 -12 4 -15 8 -3
5 1 9 9 9 8 0 15 -4 15 -9z m-1623 -13 c0 -8 -4 -12 -9 -9 -4 3 -8 9 -8 15 0
5 4 9 8 9 5 0 9 -7 9 -15z m123 -59 c0 -3 -4 -8 -10 -11 -5 -3 -10 -1 -10 4 0
6 5 11 10 11 6 0 10 -2 10 -4z m1860 -131 c0 -8 -4 -16 -9 -19 -5 -4 -7 4 -3
16 4 16 2 19 -8 13 -9 -5 -11 -4 -6 4 9 14 26 5 26 -14z m-1716 -131 c3 -8 2
-12 -4 -9 -6 3 -10 10 -10 16 0 14 7 11 14 -7z m110 -80 c3 -8 2 -12 -4 -9 -6
3 -10 10 -10 16 0 14 7 11 14 -7z m89 -114 c3 -11 3 -20 1 -20 -2 0 -8 9 -14
20 -6 11 -7 20 -2 20 6 0 12 -9 15 -20z m1374 -45 c0 -8 -4 -12 -9 -9 -5 3 -6
10 -3 15 9 13 12 11 12 -6z m-70 -41 c0 -7 -6 -10 -14 -7 -7 3 -13 8 -13 12 0
4 6 8 13 8 8 0 14 -6 14 -13z m-1110 -23 c0 -11 -5 -18 -9 -15 -4 3 -5 11 -1
19 7 21 12 19 10 -4z m814 -18 c13 -16 12 -17 -3 -4 -10 7 -18 15 -18 17 0 8
8 3 21 -13z m83 -13 c-6 -6 -10 -3 -10 10 0 13 4 16 10 10 7 -7 7 -13 0 -20z
m-827 -5 c0 -8 -4 -12 -9 -9 -5 3 -6 10 -3 15 9 13 12 11 12 -6z m796 7 c4 9
6 9 6 1 2 -20 -16 -24 -30 -5 -13 15 -12 16 3 4 13 -10 17 -10 21 0z m-394
-105 c8 -10 7 -14 -2 -14 -8 0 -14 6 -14 14 0 7 1 13 2 13 2 0 8 -6 14 -13z
m-204 -17 c3 -6 -1 -7 -9 -4 -18 7 -21 14 -7 14 6 0 13 -4 16 -10z m65 -20
c-6 -11 -13 -20 -16 -20 -2 0 0 9 6 20 6 11 13 20 16 20 2 0 0 -9 -6 -20z
m-115 1 c3 -5 2 -12 -3 -15 -5 -3 -9 1 -9 9 0 17 3 19 12 6z m-139 -23 c3 -4
-1 -5 -10 -4 -8 1 -18 5 -22 8 -3 4 1 5 10 4 8 -1 18 -5 22 -8z m-56 -7 c0
-14 -29 -21 -36 -9 -4 7 -3 8 4 4 7 -4 12 -2 12 3 0 6 5 11 10 11 6 0 10 -4
10 -9z m-49 -18 c11 -15 11 -16 0 -6 -16 13 -41 7 -58 -15 -9 -11 -13 -12 -13
-3 0 7 -4 9 -10 6 -5 -3 -10 -1 -10 5 0 7 6 10 12 8 7 -3 24 1 38 9 14 7 26
13 26 13 1 0 8 -8 15 -17z m109 -12 c0 -6 -4 -12 -8 -15 -5 -3 -9 1 -9 9 0 8
4 15 9 15 4 0 8 -4 8 -9z"/>
<path d="M1135 3481 c-3 -5 -2 -12 3 -15 5 -3 9 1 9 9 0 17 -3 19 -12 6z"/>
<path d="M1196 3334 c-9 -23 -7 -27 8 -21 8 3 20 -2 28 -10 11 -15 11 -16 -7
-9 -16 6 -18 5 -7 -5 24 -25 31 5 7 33 -19 22 -24 24 -29 12z"/>
<path d="M2303 2855 c0 -7 6 -11 14 -8 7 3 13 6 13 8 0 2 -6 5 -13 8 -8 3 -14
-1 -14 -8z"/>
<path d="M1780 2810 c8 -5 11 -10 5 -10 -5 0 -2 -5 8 -11 9 -6 14 -15 11 -21
-4 -7 -2 -8 4 -4 14 8 -13 56 -32 56 -6 0 -4 -5 4 -10z"/>
<path d="M2306 2681 c-4 -6 -12 -8 -18 -5 -7 4 -8 2 -4 -5 4 -6 12 -8 18 -5 6
4 14 0 19 -7 5 -8 9 -9 9 -4 0 20 -17 38 -24 26z"/>
<path d="M2394 2456 c10 -8 15 -20 10 -27 -4 -8 -3 -10 4 -5 18 11 14 24 -10
36 -22 10 -22 10 -4 -4z"/>
<path d="M2700 1898 c0 -3 9 -15 20 -28 11 -13 20 -19 20 -13 0 5 -9 18 -20
28 -11 10 -20 16 -20 13z"/>
<path d="M3090 1476 c0 -2 7 -7 16 -10 8 -3 12 -2 9 4 -6 10 -25 14 -25 6z"/>
<path d="M3130 1361 c0 -5 7 -14 15 -21 9 -8 13 -21 9 -32 -5 -17 -2 -19 23
-16 17 2 29 10 31 21 2 10 0 17 -5 16 -20 -3 -34 2 -53 21 -11 11 -20 16 -20
11z"/>
<path d="M3367 1203 c3 -7 9 -10 14 -7 14 8 11 21 -5 21 -8 0 -12 -6 -9 -14z"/>
<path d="M1990 750 c-9 -6 -10 -10 -3 -10 6 0 15 5 18 10 8 12 4 12 -15 0z"/>
<path d="M3447 749 c7 -7 15 -10 18 -7 3 3 -2 9 -12 12 -14 6 -15 5 -6 -5z"/>
<path d="M3360 735 c-11 -13 -10 -14 4 -9 9 3 16 10 16 15 0 13 -6 11 -20 -6z"/>
<path d="M3280 716 c0 -2 7 -9 15 -16 9 -7 15 -8 15 -2 0 5 -7 12 -15 16 -8 3
-15 4 -15 2z"/>
<path d="M3185 690 c-3 -5 1 -10 9 -10 9 0 16 5 16 10 0 6 -4 10 -9 10 -6 0
-13 -4 -16 -10z"/>
<path d="M1871 401 c-6 -9 -9 -11 -6 -4 3 7 -2 11 -15 10 -11 -1 -20 -5 -20
-10 0 -4 -4 -6 -9 -2 -6 3 -14 -3 -20 -12 -6 -11 -11 -13 -11 -5 0 7 -4 11
-10 7 -5 -3 -7 -13 -4 -23 5 -14 4 -14 -4 -2 -13 17 -62 22 -56 6 3 -7 -5 -12
-16 -13 -11 -1 -20 4 -20 10 0 8 -3 8 -8 2 -21 -29 -42 -38 -58 -25 -8 8 -14
9 -13 4 1 -5 1 -16 0 -24 -1 -12 -3 -12 -9 -2 -7 10 -15 10 -40 -1 -30 -12
-31 -14 -14 -31 9 -11 12 -16 5 -12 -6 3 -14 2 -18 -4 -3 -5 1 -10 9 -10 8 0
18 5 21 10 4 7 13 6 27 -1 15 -8 19 -8 14 0 -4 6 -1 11 6 11 9 0 9 3 -2 10
-11 8 -8 9 12 6 15 -3 32 -7 37 -10 5 -3 15 2 22 12 13 15 12 16 -3 3 -10 -7
-18 -9 -18 -3 0 14 28 23 35 12 6 -10 40 -8 51 2 3 4 12 4 20 1 8 -3 14 0 14
7 0 6 -4 9 -9 5 -5 -3 -12 -1 -16 4 -3 6 3 8 14 6 11 -2 25 3 32 11 6 8 16 14
21 14 6 0 0 -8 -13 -18 -17 -15 -19 -21 -9 -27 9 -6 11 -4 5 5 -6 10 -4 12 9
7 9 -4 15 -3 12 2 -3 5 1 12 10 15 22 9 26 8 18 -6 -5 -7 -3 -8 5 -4 7 5 10
14 7 22 -3 8 0 11 9 7 8 -3 12 -9 9 -14 -3 -5 0 -9 5 -9 6 0 12 7 12 15 2 23
4 29 12 41 11 19 -18 24 -32 5z m-117 -43 c-3 -4 -9 -8 -15 -8 -5 0 -9 4 -9 8
0 5 7 9 15 9 8 0 12 -4 9 -9z m-38 -31 c8 3 14 1 14 -5 0 -14 -33 -8 -36 7 -1
6 0 7 2 2 3 -6 12 -7 20 -4z m-91 -7 c3 -5 1 -10 -4 -10 -6 0 -11 5 -11 10 0
6 2 10 4 10 3 0 8 -4 11 -10z m-48 -22 c0 -13 -1 -17 -4 -10 -3 6 -9 10 -14 6
-5 -3 -9 -1 -9 5 0 5 6 12 13 14 6 3 12 6 12 6 1 1 1 -9 2 -21z"/>
<path d="M1494 271 c0 -22 3 -38 8 -35 5 3 6 9 3 14 -3 4 2 13 10 20 12 10 12
14 0 26 -19 20 -20 19 -21 -25z"/>
<path d="M1425 279 c2 -3 -4 -13 -15 -21 -16 -14 -19 -14 -24 -2 -4 12 -10 12
-26 4 -11 -6 -25 -8 -30 -5 -6 3 -7 -1 -4 -9 4 -11 0 -16 -11 -16 -10 0 -14 5
-10 13 4 6 1 5 -7 -3 -14 -17 -27 -19 -46 -7 -7 5 -12 5 -11 0 3 -19 -2 -27
-10 -14 -7 11 -13 8 -26 -13 -14 -21 -15 -30 -6 -39 10 -9 11 -8 5 7 -6 16 -5
17 16 6 17 -9 25 -9 34 0 8 8 7 10 -7 4 -13 -5 -16 -2 -11 10 6 16 24 17 36 2
4 -6 12 -5 20 2 11 9 18 9 28 -1 12 -10 12 -9 1 5 -12 16 -10 17 17 13 20 -2
32 2 36 11 3 9 10 12 16 9 6 -4 8 -10 5 -15 -3 -5 0 -12 6 -16 7 -4 9 -3 5 4
-3 6 -2 13 4 17 6 4 8 11 5 16 -4 5 -1 9 4 9 6 0 11 -6 11 -12 0 -9 3 -8 10 2
6 9 5 17 -2 21 -7 4 -7 9 1 13 11 7 14 -3 12 -34 0 -10 1 -11 5 -2 3 6 11 9
16 6 6 -4 8 -2 4 4 -3 6 -2 13 4 17 21 13 9 24 -24 22 -19 -1 -32 -5 -31 -8z
m-45 -23 c0 -2 -12 -11 -27 -20 l-28 -17 24 20 c23 21 31 25 31 17z m-80 -42
c0 -8 -19 -13 -24 -6 -3 5 1 9 9 9 8 0 15 -2 15 -3z m-70 -14 c0 -5 -4 -10
-10 -10 -5 0 -10 5 -10 10 0 6 5 10 10 10 6 0 10 -4 10 -10z"/>
<path d="M1166 195 c-15 -11 -23 -12 -33 -3 -11 8 -12 7 -7 -6 4 -12 2 -15 -9
-10 -8 3 -18 1 -22 -5 -4 -7 0 -8 11 -4 13 5 15 3 9 -8 -8 -12 -6 -12 8 -1 9
8 22 10 28 6 8 -4 9 -3 5 4 -4 7 -3 12 3 12 5 0 11 -3 14 -7 2 -5 3 -3 1 3 -1
6 3 17 9 23 15 15 6 13 -17 -4z"/>
<path d="M1056 166 c3 -8 13 -17 21 -20 25 -10 23 -3 -3 17 -18 13 -22 14 -18
3z"/>
<path d="M1023 155 c0 -7 6 -11 14 -8 7 3 13 6 13 8 0 2 -6 5 -13 8 -8 3 -14
-1 -14 -8z"/>
<path d="M975 129 c-4 -6 -5 -12 -2 -15 2 -3 7 2 10 11 7 17 1 20 -8 4z"/>
</g>
</svg>
